<svg width="900" height="600" viewBox="0 0 900 600" fill="none" xmlns="http://www.w3.org/2000/svg">
  <defs>
    <linearGradient id="chart" x1="0" y1="0" x2="1" y2="1">
      <stop offset="0%" stop-color="#2563eb" />
      <stop offset="100%" stop-color="#14b8a6" />
    </linearGradient>
  </defs>
  <rect width="900" height="600" rx="28" fill="#ffffff" stroke="#e2e8f0" />
  <rect x="40" y="40" width="820" height="50" rx="14" fill="#f1f5f9" />
  <rect x="60" y="58" width="140" height="16" rx="8" fill="#cbd5e1" />
  <rect x="40" y="110" width="820" height="430" rx="20" fill="#ffffff" stroke="#e2e8f0" />
  <rect x="70" y="150" width="760" height="320" rx="16" fill="#f8fafc" />
  <path
    d="M90 420 L200 360 L320 380 L440 300 L560 330 L680 250 L790 280"
    stroke="url(#chart)"
    stroke-width="12"
    stroke-linecap="round"
    stroke-linejoin="round"
    fill="none"
  />
  <circle cx="200" cy="360" r="10" fill="#2563eb" />
  <circle cx="320" cy="380" r="10" fill="#14b8a6" />
  <circle cx="440" cy="300" r="10" fill="#2563eb" />
  <circle cx="560" cy="330" r="10" fill="#14b8a6" />
  <circle cx="680" cy="250" r="10" fill="#2563eb" />
  <circle cx="790" cy="280" r="10" fill="#14b8a6" />
  <rect x="90" y="480" width="180" height="30" rx="12" fill="#e2e8f0" />
  <rect x="290" y="480" width="180" height="30" rx="12" fill="#e2e8f0" />
  <rect x="490" y="480" width="180" height="30" rx="12" fill="#e2e8f0" />
  <rect x="690" y="480" width="140" height="30" rx="12" fill="#e2e8f0" />
</svg>
