<svg width="900" height="600" viewBox="0 0 900 600" fill="none" xmlns="http://www.w3.org/2000/svg">
  <defs>
    <linearGradient id="dashGradient" x1="0" y1="0" x2="1" y2="1">
      <stop offset="0%" stop-color="#2563eb" />
      <stop offset="100%" stop-color="#14b8a6" />
    </linearGradient>
  </defs>
  <rect width="900" height="600" rx="28" fill="#ffffff" stroke="#e2e8f0" />
  <rect x="40" y="40" width="820" height="40" rx="12" fill="#f1f5f9" />
  <rect x="60" y="52" width="120" height="16" rx="8" fill="#cbd5e1" />
  <rect x="40" y="100" width="380" height="200" rx="18" fill="#ffffff" stroke="#e2e8f0" />
  <rect x="60" y="125" width="150" height="14" rx="7" fill="#e2e8f0" />
  <rect x="60" y="150" width="300" height="110" rx="16" fill="#f8fafc" />
  <rect x="80" y="170" width="80" height="70" rx="10" fill="url(#dashGradient)" />
  <rect x="180" y="170" width="80" height="70" rx="10" fill="#dbeafe" />
  <rect x="280" y="170" width="80" height="70" rx="10" fill="#ccfbf1" />
  <rect x="450" y="100" width="410" height="200" rx="18" fill="#ffffff" stroke="#e2e8f0" />
  <rect x="470" y="125" width="160" height="14" rx="7" fill="#e2e8f0" />
  <rect x="470" y="160" width="370" height="8" rx="4" fill="#dbeafe" />
  <rect x="470" y="180" width="340" height="8" rx="4" fill="#bfdbfe" />
  <rect x="470" y="200" width="300" height="8" rx="4" fill="#93c5fd" />
  <rect x="470" y="220" width="320" height="8" rx="4" fill="#60a5fa" />
  <rect x="470" y="240" width="280" height="8" rx="4" fill="#3b82f6" />
  <rect x="40" y="330" width="820" height="220" rx="18" fill="#ffffff" stroke="#e2e8f0" />
  <rect x="60" y="355" width="220" height="14" rx="7" fill="#e2e8f0" />
  <rect x="60" y="385" width="760" height="130" rx="16" fill="#f8fafc" />
  <rect x="80" y="405" width="120" height="90" rx="12" fill="#dbeafe" />
  <rect x="220" y="405" width="120" height="90" rx="12" fill="#ccfbf1" />
  <rect x="360" y="405" width="120" height="90" rx="12" fill="#fde68a" />
  <rect x="500" y="405" width="120" height="90" rx="12" fill="#bfdbfe" />
  <rect x="640" y="405" width="120" height="90" rx="12" fill="#bae6fd" />
</svg>
