<svg width="900" height="600" viewBox="0 0 900 600" fill="none" xmlns="http://www.w3.org/2000/svg">
  <rect width="900" height="600" rx="28" fill="#ffffff" stroke="#e2e8f0" />
  <rect x="40" y="40" width="820" height="50" rx="14" fill="#f1f5f9" />
  <rect x="60" y="58" width="160" height="16" rx="8" fill="#cbd5e1" />
  <rect x="120" y="140" width="200" height="110" rx="18" fill="#ffffff" stroke="#e2e8f0" />
  <rect x="150" y="175" width="140" height="12" rx="6" fill="#e2e8f0" />
  <rect x="150" y="195" width="100" height="12" rx="6" fill="#cbd5e1" />
  <rect x="580" y="140" width="200" height="110" rx="18" fill="#ffffff" stroke="#e2e8f0" />
  <rect x="610" y="175" width="140" height="12" rx="6" fill="#e2e8f0" />
  <rect x="610" y="195" width="100" height="12" rx="6" fill="#cbd5e1" />
  <rect x="350" y="320" width="200" height="110" rx="18" fill="#ffffff" stroke="#e2e8f0" />
  <rect x="380" y="355" width="140" height="12" rx="6" fill="#e2e8f0" />
  <rect x="380" y="375" width="100" height="12" rx="6" fill="#cbd5e1" />
  <path d="M320 195 H460" stroke="#bfdbfe" stroke-width="8" stroke-linecap="round" />
  <path d="M460 195 V320" stroke="#bfdbfe" stroke-width="8" stroke-linecap="round" />
  <path d="M580 195 H440" stroke="#ccfbf1" stroke-width="8" stroke-linecap="round" />
  <path d="M440 195 V320" stroke="#ccfbf1" stroke-width="8" stroke-linecap="round" />
  <rect x="120" y="460" width="660" height="80" rx="20" fill="#f8fafc" />
  <rect x="150" y="485" width="120" height="16" rx="8" fill="#cbd5e1" />
  <rect x="290" y="485" width="220" height="16" rx="8" fill="#e2e8f0" />
  <rect x="540" y="485" width="200" height="16" rx="8" fill="#e2e8f0" />
</svg>
